<svg width="16" height="18" viewBox="0 0 16 18" fill="none" xmlns="http://www.w3.org/2000/svg">
<g clip-path="url(#clip0_119_204)">
<path d="M9.00562 5.46428V9.96428C9.00562 10.058 8.97548 10.135 8.91521 10.1953C8.85495 10.2556 8.77794 10.2857 8.68419 10.2857H5.4699C5.37615 10.2857 5.29914 10.2556 5.23887 10.1953C5.17861 10.135 5.14847 10.058 5.14847 9.96428V9.32142C5.14847 9.22767 5.17861 9.15066 5.23887 9.0904C5.29914 9.03013 5.37615 8.99999 5.4699 8.99999H7.7199V5.46428C7.7199 5.37053 7.75003 5.29352 7.8103 5.23325C7.87057 5.17299 7.94758 5.14285 8.04133 5.14285H8.68419C8.77794 5.14285 8.85495 5.17299 8.91521 5.23325C8.97548 5.29352 9.00562 5.37053 9.00562 5.46428ZM12.4509 11.7422C12.4509 11.7422 12.5731 11.5329 12.8176 11.1144C13.062 10.6959 13.1842 9.99107 13.1842 8.99999C13.1842 8.00892 12.9398 7.09486 12.4509 6.25781C11.9621 5.42075 11.2991 4.75781 10.4621 4.26897C9.62503 3.78013 8.71097 3.53571 7.7199 3.53571C6.72883 3.53571 5.81477 3.78013 4.97771 4.26897C4.14066 4.75781 3.47771 5.42075 2.98887 6.25781C2.50003 7.09486 2.25562 8.00892 2.25562 8.99999C2.25562 9.99107 2.50003 10.9051 2.98887 11.7422C3.47771 12.5792 4.14066 13.2422 4.97771 13.731C5.81477 14.2199 6.72883 14.4643 7.7199 14.4643C8.71097 14.4643 9.62503 14.2199 10.4621 13.731C11.2991 13.2422 11.9621 12.5792 12.4509 11.7422ZM14.3996 5.12778C14.3996 5.12778 14.572 5.42326 14.9169 6.01422C15.2618 6.60518 15.4342 7.60044 15.4342 8.99999C15.4342 10.3995 15.0893 11.6903 14.3996 12.8722C13.7099 14.0541 12.774 14.9899 11.5921 15.6797C10.4102 16.3694 9.11945 16.7143 7.7199 16.7143C6.32035 16.7143 5.02961 16.3694 3.84769 15.6797C2.66577 14.9899 1.72995 14.0541 1.04021 12.8722C0.350481 11.6903 0.00561523 10.3995 0.00561523 8.99999C0.00561523 7.60044 0.350481 6.3097 1.04021 5.12778C1.72995 3.94586 2.66577 3.01004 3.84769 2.32031C5.02961 1.63057 6.32035 1.28571 7.7199 1.28571C9.11945 1.28571 10.4102 1.63057 11.5921 2.32031C12.774 3.01004 13.7099 3.94586 14.3996 5.12778Z" fill="#800080"/>
</g>
<defs>
<clipPath id="clip0_119_204">
<rect width="15.44" height="18" fill="white" transform="matrix(1 0 0 -1 0 18)"/>
</clipPath>
</defs>
</svg>
