<svg width="18" height="19" viewBox="0 0 18 19" fill="none" xmlns="http://www.w3.org/2000/svg">
<path d="M11.4404 11.5202C11.4404 11.5202 11.5799 11.3807 11.8589 11.1017C12.1379 10.8226 12.2774 10.2888 12.2774 9.50011C12.2774 8.71141 11.9984 8.03805 11.4404 7.48002C10.8824 6.92198 10.209 6.64296 9.42031 6.64296C8.63161 6.64296 7.95825 6.92198 7.40022 7.48002C6.84218 8.03805 6.56316 8.71141 6.56316 9.50011C6.56316 10.2888 6.84218 10.9622 7.40022 11.5202C7.95825 12.0782 8.63161 12.3572 9.42031 12.3572C10.209 12.3572 10.8824 12.0782 11.4404 11.5202ZM12.5341 6.38627C12.5341 6.38627 12.7481 6.60018 13.1759 7.02801C13.6037 7.45583 13.8176 8.27987 13.8176 9.50011C13.8176 10.7203 13.3898 11.7583 12.5341 12.6139C11.6785 13.4696 10.6405 13.8974 9.42031 13.8974C8.20007 13.8974 7.16212 13.4696 6.30647 12.6139C5.45081 11.7583 5.02298 10.7203 5.02298 9.50011C5.02298 8.27987 5.45081 7.24192 6.30647 6.38627C7.16212 5.53061 8.20007 5.10278 9.42031 5.10278C10.6405 5.10278 11.6785 5.53061 12.5341 6.38627ZM14.7216 4.19877C14.7216 4.19877 14.7719 4.24899 14.8723 4.34944C14.9728 4.44988 15.023 4.64147 15.023 4.92421C15.023 5.20695 14.9225 5.44877 14.7216 5.64966C14.5208 5.85055 14.2789 5.951 13.9962 5.951C13.7135 5.951 13.4716 5.85055 13.2708 5.64966C13.0699 5.44877 12.9694 5.20695 12.9694 4.92421C12.9694 4.64147 13.0699 4.39966 13.2708 4.19877C13.4716 3.99787 13.7135 3.89743 13.9962 3.89743C14.2789 3.89743 14.5208 3.99787 14.7216 4.19877ZM10.2741 2.46328C10.2741 2.46328 10.1448 2.46421 9.88626 2.46607C9.62771 2.46793 9.47239 2.46886 9.42031 2.46886C9.36822 2.46886 9.08362 2.467 8.56651 2.46328C8.0494 2.45955 7.65691 2.45955 7.38906 2.46328C7.1212 2.467 6.7622 2.47816 6.31205 2.49676C5.8619 2.51536 5.47871 2.55256 5.16249 2.60836C4.84627 2.66417 4.58028 2.73299 4.3645 2.81484C3.99248 2.96365 3.6651 3.17942 3.38236 3.46216C3.09962 3.7449 2.88385 4.07228 2.73504 4.4443C2.65319 4.66008 2.58437 4.92607 2.52856 5.24229C2.47276 5.55851 2.43556 5.9417 2.41696 6.39185C2.39836 6.842 2.3872 7.201 2.38348 7.46886C2.37975 7.73671 2.37975 8.1292 2.38348 8.64631C2.3872 9.16342 2.38906 9.44802 2.38906 9.50011C2.38906 9.55219 2.3872 9.83679 2.38348 10.3539C2.37975 10.871 2.37975 11.2635 2.38348 11.5314C2.3872 11.7992 2.39836 12.1582 2.41696 12.6084C2.43556 13.0585 2.47276 13.4417 2.52856 13.7579C2.58437 14.0741 2.65319 14.3401 2.73504 14.5559C2.88385 14.9279 3.09962 15.2553 3.38236 15.5381C3.6651 15.8208 3.99248 16.0366 4.3645 16.1854C4.58028 16.2672 4.84627 16.336 5.16249 16.3918C5.47871 16.4476 5.8619 16.4849 6.31205 16.5035C6.7622 16.5221 7.1212 16.5332 7.38906 16.5369C7.65691 16.5407 8.0494 16.5407 8.56651 16.5369C9.08362 16.5332 9.36822 16.5314 9.42031 16.5314C9.47239 16.5314 9.75699 16.5332 10.2741 16.5369C10.7912 16.5407 11.1837 16.5407 11.4516 16.5369C11.7194 16.5332 12.0784 16.5221 12.5286 16.5035C12.9787 16.4849 13.3619 16.4476 13.6781 16.3918C13.9943 16.336 14.2603 16.2672 14.4761 16.1854C14.8481 16.0366 15.1755 15.8208 15.4583 15.5381C15.741 15.2553 15.9568 14.9279 16.1056 14.5559C16.1874 14.3401 16.2562 14.0741 16.312 13.7579C16.3678 13.4417 16.4051 13.0585 16.4237 12.6084C16.4423 12.1582 16.4534 11.7992 16.4571 11.5314C16.4609 11.2635 16.4609 10.871 16.4571 10.3539C16.4534 9.83679 16.4516 9.55219 16.4516 9.50011C16.4516 9.44802 16.4534 9.16342 16.4571 8.64631C16.4609 8.1292 16.4609 7.73671 16.4571 7.46886C16.4534 7.201 16.4423 6.842 16.4237 6.39185C16.4051 5.9417 16.3678 5.55851 16.312 5.24229C16.2562 4.92607 16.1874 4.66008 16.1056 4.4443C15.9568 4.07228 15.741 3.7449 15.4583 3.46216C15.1755 3.17942 14.8481 2.96365 14.4761 2.81484C14.2603 2.73299 13.9943 2.66417 13.6781 2.60836C13.3619 2.55256 12.9787 2.51536 12.5286 2.49676C12.0784 2.47816 11.7194 2.467 11.4516 2.46328C11.1837 2.45955 10.7912 2.45955 10.2741 2.46328ZM17.9359 5.96216C17.9731 6.61692 17.9917 7.79624 17.9917 9.50011C17.9917 11.204 17.9731 12.3833 17.9359 13.0381C17.8615 14.5857 17.4002 15.7836 16.552 16.6318C15.7038 17.48 14.5059 17.9413 12.9583 18.0157C12.3035 18.0529 11.1242 18.0715 9.42031 18.0715C7.71644 18.0715 6.53712 18.0529 5.88236 18.0157C4.33474 17.9413 3.13682 17.48 2.28861 16.6318C1.44039 15.7836 0.979085 14.5857 0.904681 13.0381C0.867478 12.3833 0.848877 11.204 0.848877 9.50011C0.848877 7.79624 0.867478 6.61692 0.904681 5.96216C0.979085 4.41454 1.44039 3.21662 2.28861 2.36841C3.13682 1.52019 4.33474 1.05889 5.88236 0.984481C6.53712 0.947278 7.71644 0.928677 9.42031 0.928677C11.1242 0.928677 12.3035 0.947278 12.9583 0.984481C14.5059 1.05889 15.7038 1.52019 16.552 2.36841C17.4002 3.21662 17.8615 4.41454 17.9359 5.96216Z" fill="#FFFDFF"/>
</svg>
