<svg width="20" height="21" viewBox="0 0 20 21" fill="none" xmlns="http://www.w3.org/2000/svg">
<path d="M9.66167 5.55859C12.3687 5.55859 14.6031 7.79297 14.6031 10.5C14.6031 13.25 12.3687 15.4414 9.66167 15.4414C6.91167 15.4414 4.72026 13.25 4.72026 10.5C4.72026 7.79297 6.91167 5.55859 9.66167 5.55859ZM9.66167 13.7227C11.4234 13.7227 12.8414 12.3047 12.8414 10.5C12.8414 8.73828 11.4234 7.32031 9.66167 7.32031C7.85698 7.32031 6.43901 8.73828 6.43901 10.5C6.43901 12.3047 7.89995 13.7227 9.66167 13.7227ZM15.9351 5.38672C15.9351 6.03125 15.4195 6.54688 14.775 6.54688C14.1304 6.54688 13.6148 6.03125 13.6148 5.38672C13.6148 4.74219 14.1304 4.22656 14.775 4.22656C15.4195 4.22656 15.9351 4.74219 15.9351 5.38672ZM19.2007 6.54688C19.2867 8.13672 19.2867 12.9062 19.2007 14.4961C19.1148 16.043 18.771 17.375 17.6539 18.5352C16.5367 19.6523 15.1617 19.9961 13.6148 20.082C12.025 20.168 7.25542 20.168 5.66558 20.082C4.1187 19.9961 2.78667 19.6523 1.62651 18.5352C0.509327 17.375 0.165577 16.043 0.0796394 14.4961C-0.00629807 12.9062 -0.00629807 8.13672 0.0796394 6.54688C0.165577 5 0.509327 3.625 1.62651 2.50781C2.78667 1.39062 4.1187 1.04688 5.66558 0.960938C7.25542 0.875 12.025 0.875 13.6148 0.960938C15.1617 1.04688 16.5367 1.39062 17.6539 2.50781C18.771 3.625 19.1148 5 19.2007 6.54688ZM17.1382 16.1719C17.6539 14.9258 17.525 11.918 17.525 10.5C17.525 9.125 17.6539 6.11719 17.1382 4.82812C16.7945 4.01172 16.15 3.32422 15.3335 3.02344C14.0445 2.50781 11.0367 2.63672 9.66167 2.63672C8.2437 2.63672 5.23589 2.50781 3.9898 3.02344C3.13042 3.36719 2.48589 4.01172 2.14214 4.82812C1.62651 6.11719 1.75542 9.125 1.75542 10.5C1.75542 11.918 1.62651 14.9258 2.14214 16.1719C2.48589 17.0312 3.13042 17.6758 3.9898 18.0195C5.23589 18.5352 8.2437 18.4062 9.66167 18.4062C11.0367 18.4062 14.0445 18.5352 15.3335 18.0195C16.15 17.6758 16.8375 17.0312 17.1382 16.1719Z" fill="#2B282B"/>
</svg>
