<svg width="56" height="31" viewBox="0 0 56 31" fill="none" xmlns="http://www.w3.org/2000/svg">
<path d="M27.6617 12.5586C30.3687 12.5586 32.6031 14.793 32.6031 17.5C32.6031 20.25 30.3687 22.4414 27.6617 22.4414C24.9117 22.4414 22.7203 20.25 22.7203 17.5C22.7203 14.793 24.9117 12.5586 27.6617 12.5586ZM27.6617 20.7227C29.4234 20.7227 30.8414 19.3047 30.8414 17.5C30.8414 15.7383 29.4234 14.3203 27.6617 14.3203C25.857 14.3203 24.439 15.7383 24.439 17.5C24.439 19.3047 25.9 20.7227 27.6617 20.7227ZM33.9351 12.3867C33.9351 13.0312 33.4195 13.5469 32.775 13.5469C32.1304 13.5469 31.6148 13.0312 31.6148 12.3867C31.6148 11.7422 32.1304 11.2266 32.775 11.2266C33.4195 11.2266 33.9351 11.7422 33.9351 12.3867ZM37.2007 13.5469C37.2867 15.1367 37.2867 19.9062 37.2007 21.4961C37.1148 23.043 36.771 24.375 35.6539 25.5352C34.5367 26.6523 33.1617 26.9961 31.6148 27.082C30.025 27.168 25.2554 27.168 23.6656 27.082C22.1187 26.9961 20.7867 26.6523 19.6265 25.5352C18.5093 24.375 18.1656 23.043 18.0796 21.4961C17.9937 19.9062 17.9937 15.1367 18.0796 13.5469C18.1656 12 18.5093 10.625 19.6265 9.50781C20.7867 8.39062 22.1187 8.04688 23.6656 7.96094C25.2554 7.875 30.025 7.875 31.6148 7.96094C33.1617 8.04688 34.5367 8.39062 35.6539 9.50781C36.771 10.625 37.1148 12 37.2007 13.5469ZM35.1382 23.1719C35.6539 21.9258 35.525 18.918 35.525 17.5C35.525 16.125 35.6539 13.1172 35.1382 11.8281C34.7945 11.0117 34.15 10.3242 33.3335 10.0234C32.0445 9.50781 29.0367 9.63672 27.6617 9.63672C26.2437 9.63672 23.2359 9.50781 21.9898 10.0234C21.1304 10.3672 20.4859 11.0117 20.1421 11.8281C19.6265 13.1172 19.7554 16.125 19.7554 17.5C19.7554 18.918 19.6265 21.9258 20.1421 23.1719C20.4859 24.0312 21.1304 24.6758 21.9898 25.0195C23.2359 25.5352 26.2437 25.4062 27.6617 25.4062C29.0367 25.4062 32.0445 25.5352 33.3335 25.0195C34.15 24.6758 34.8375 24.0312 35.1382 23.1719Z" fill="#2B282B"/>
</svg>
