<svg width="11" height="18" viewBox="0 0 11 18" fill="none" xmlns="http://www.w3.org/2000/svg">
<g clip-path="url(#clip0_119_198)">
<path d="M7.4375 8.24664C7.4375 8.24664 7.56306 8.12109 7.81417 7.86997C8.06529 7.61886 8.19085 7.13839 8.19085 6.42857C8.19085 5.71874 7.93973 5.11272 7.4375 4.61049C6.93527 4.10825 6.32924 3.85714 5.61942 3.85714C4.9096 3.85714 4.30357 4.10825 3.80134 4.61049C3.29911 5.11272 3.04799 5.71874 3.04799 6.42857C3.04799 7.13839 3.29911 7.74441 3.80134 8.24664C4.30357 8.74888 4.9096 8.99999 5.61942 8.99999C6.32924 8.99999 6.93527 8.74888 7.4375 8.24664ZM10.7623 6.42857C10.7623 7.15848 10.6518 7.75781 10.4308 8.22656L6.77455 16.0011C6.66741 16.2221 6.50837 16.3962 6.29743 16.5234C6.0865 16.6507 5.86049 16.7143 5.61942 16.7143C5.37835 16.7143 5.15234 16.6507 4.94141 16.5234C4.73047 16.3962 4.57478 16.2221 4.47433 16.0011L0.808036 8.22656C0.587054 7.75781 0.476562 7.15848 0.476562 6.42857C0.476562 5.00892 0.978795 3.79687 1.98326 2.7924C2.98772 1.78794 4.19978 1.28571 5.61942 1.28571C7.03906 1.28571 8.25112 1.78794 9.25558 2.7924C10.26 3.79687 10.7623 5.00892 10.7623 6.42857Z" fill="#800080"/>
</g>
<defs>
<clipPath id="clip0_119_198">
<rect width="10.3" height="18" fill="white" transform="matrix(1 0 0 -1 0.469482 18)"/>
</clipPath>
</defs>
</svg>
