<svg width="16" height="16" viewBox="0 0 16 16" fill="none" xmlns="http://www.w3.org/2000/svg">
<g clip-path="url(#clip0_119_178)">
<path d="M14.7386 13.0893V6.66072C14.5601 6.86161 14.3675 7.04576 14.1611 7.21317C12.6655 8.36273 11.4769 9.30581 10.5952 10.0424C10.3106 10.2824 10.079 10.4693 9.90046 10.6032C9.72189 10.7372 9.48054 10.8725 9.17641 11.0092C8.87228 11.1459 8.58629 11.2143 8.31843 11.2143H8.31006H8.30169C8.03383 11.2143 7.74784 11.1459 7.44371 11.0092C7.13958 10.8725 6.89823 10.7372 6.71966 10.6032C6.54109 10.4693 6.3095 10.2824 6.0249 10.0424C5.14321 9.30581 3.95459 8.36273 2.45905 7.21317C2.25258 7.04576 2.06006 6.86161 1.88149 6.66072V13.0893C1.88149 13.1618 1.90799 13.2246 1.96101 13.2776C2.01402 13.3306 2.0768 13.3571 2.14934 13.3571H14.4708C14.5433 13.3571 14.6061 13.3306 14.6591 13.2776C14.7121 13.2246 14.7386 13.1618 14.7386 13.0893ZM14.7386 4.29185C14.7386 4.28069 14.7386 4.25 14.7386 4.19978C14.7386 4.14956 14.7386 4.11189 14.7386 4.08678C14.7386 4.06167 14.7372 4.02539 14.7344 3.97796C14.7317 3.93053 14.7233 3.89565 14.7093 3.87333C14.6954 3.85101 14.68 3.8259 14.6633 3.79799C14.6466 3.77009 14.6214 3.74917 14.588 3.73521C14.5545 3.72126 14.5154 3.71429 14.4708 3.71429H2.14934C2.0768 3.71429 2.01402 3.7408 1.96101 3.79381C1.90799 3.84682 1.88149 3.9096 1.88149 3.98215C1.88149 4.91965 2.29164 5.71206 3.11196 6.35938C4.18896 7.20759 5.30783 8.09208 6.46854 9.01284C6.50202 9.04074 6.59968 9.12305 6.76151 9.25977C6.92334 9.39649 7.05169 9.50112 7.14655 9.57366C7.24142 9.64621 7.36558 9.7341 7.51904 9.83734C7.6725 9.94057 7.81341 10.0173 7.94175 10.0675C8.0701 10.1177 8.19008 10.1429 8.30169 10.1429H8.31006H8.31843C8.43004 10.1429 8.55001 10.1177 8.67836 10.0675C8.80671 10.0173 8.94761 9.94057 9.10107 9.83734C9.25453 9.7341 9.3787 9.64621 9.47356 9.57366C9.56843 9.50112 9.69678 9.39649 9.85861 9.25977C10.0204 9.12305 10.1181 9.04074 10.1516 9.01284C11.3123 8.09208 12.4312 7.20759 13.5082 6.35938C13.8095 6.11942 14.0899 5.79716 14.3494 5.39258C14.6089 4.988 14.7386 4.6211 14.7386 4.29185ZM15.8101 3.98215V13.0893C15.8101 13.4576 15.6789 13.7729 15.4166 14.0352C15.1544 14.2974 14.8391 14.4286 14.4708 14.4286H2.14934C1.78104 14.4286 1.46575 14.2974 1.20347 14.0352C0.941197 13.7729 0.810059 13.4576 0.810059 13.0893V3.98215C0.810059 3.61384 0.941197 3.29855 1.20347 3.03627C1.46575 2.774 1.78104 2.64286 2.14934 2.64286H14.4708C14.8391 2.64286 15.1544 2.774 15.4166 3.03627C15.6789 3.29855 15.8101 3.61384 15.8101 3.98215Z" fill="#800080"/>
</g>
<defs>
<clipPath id="clip0_119_178">
<rect width="15.02" height="15" fill="white" transform="matrix(1 0 0 -1 0.800049 15.5)"/>
</clipPath>
</defs>
</svg>
