<svg width="12" height="16" viewBox="0 0 12 16" fill="none" xmlns="http://www.w3.org/2000/svg">
<g clip-path="url(#clip0_119_174)">
<path d="M11.7928 10.8795C11.7928 11.0301 11.7649 11.2268 11.7091 11.4696C11.6533 11.7123 11.5947 11.9035 11.5333 12.043C11.4161 12.322 11.0757 12.6177 10.5121 12.9302C9.98755 13.2148 9.46858 13.3571 8.95518 13.3571C8.80451 13.3571 8.65663 13.3474 8.51154 13.3279C8.36646 13.3083 8.20602 13.2734 8.03024 13.2232C7.85446 13.173 7.72332 13.1325 7.63682 13.1018C7.55033 13.0712 7.39547 13.014 7.17226 12.9302C6.94904 12.8465 6.81233 12.7963 6.7621 12.7796C6.21523 12.5843 5.72695 12.3527 5.29726 12.0848C4.58855 11.644 3.85195 11.0413 3.08744 10.2768C2.32293 9.51228 1.72025 8.77567 1.2794 8.06697C1.01154 7.63728 0.779959 7.149 0.584647 6.60213C0.567906 6.5519 0.517683 6.41518 0.433977 6.19197C0.350272 5.96875 0.293073 5.8139 0.262381 5.7274C0.231689 5.64091 0.191232 5.50977 0.141009 5.33399C0.0907854 5.15821 0.0559082 4.99777 0.036377 4.85268C0.0168457 4.70759 0.00708008 4.55971 0.00708008 4.40905C0.00708008 3.89565 0.149379 3.37668 0.433977 2.85213C0.746477 2.28851 1.04224 1.94811 1.32125 1.83092C1.46076 1.76954 1.65189 1.71094 1.89464 1.65514C2.13738 1.59933 2.33409 1.57143 2.48476 1.57143C2.56288 1.57143 2.62148 1.5798 2.66054 1.59655C2.76099 1.63003 2.90887 1.84208 3.10418 2.23271C3.16556 2.33873 3.24927 2.4894 3.35529 2.68471C3.46132 2.88003 3.55898 3.0572 3.64826 3.21624C3.73755 3.37528 3.82404 3.52456 3.90775 3.66407C3.92449 3.68639 3.97332 3.75614 4.05423 3.87333C4.13515 3.99052 4.19514 4.08957 4.2342 4.17048C4.27326 4.2514 4.29279 4.33092 4.29279 4.40905C4.29279 4.52065 4.21327 4.66016 4.05423 4.82757C3.89519 4.99498 3.7222 5.14844 3.53526 5.28795C3.34832 5.42746 3.17533 5.57534 3.01629 5.73159C2.85725 5.88784 2.77773 6.01619 2.77773 6.11663C2.77773 6.16686 2.79168 6.22964 2.81958 6.30497C2.84748 6.38031 2.8712 6.4375 2.89073 6.47657C2.91026 6.51563 2.94932 6.58259 3.00792 6.67746C3.06651 6.77233 3.0986 6.82534 3.10418 6.8365C3.52829 7.60101 4.01378 8.2567 4.56065 8.80358C5.10753 9.35045 5.76322 9.83594 6.52773 10.26C6.53889 10.2656 6.5919 10.2977 6.68677 10.3563C6.78163 10.4149 6.8486 10.454 6.88766 10.4735C6.92672 10.493 6.98392 10.5167 7.05926 10.5446C7.13459 10.5725 7.19737 10.5865 7.24759 10.5865C7.34804 10.5865 7.47639 10.507 7.63264 10.3479C7.78889 10.1889 7.93677 10.0159 8.07628 9.82897C8.21579 9.64202 8.36924 9.46903 8.53666 9.30999C8.70407 9.15095 8.84358 9.07143 8.95518 9.07143C9.03331 9.07143 9.11283 9.09096 9.19374 9.13003C9.27466 9.16909 9.37371 9.22908 9.4909 9.30999C9.60808 9.39091 9.67784 9.43974 9.70016 9.45648C9.83967 9.54018 9.98894 9.62668 10.148 9.71596C10.307 9.80525 10.4842 9.90291 10.6795 10.0089C10.8748 10.115 11.0255 10.1987 11.1315 10.26C11.5221 10.4554 11.7342 10.6032 11.7677 10.7037C11.7844 10.7427 11.7928 10.8013 11.7928 10.8795Z" fill="#fdf9f2"/>
</g>
<defs>
<clipPath id="clip0_119_174">
<rect width="11.8" height="15" fill="white" transform="matrix(1 0 0 -1 0 15.5)"/>
</clipPath>
</defs>
</svg>
