<svg width="19" height="15" viewBox="0 0 19 15" fill="none" xmlns="http://www.w3.org/2000/svg">
<path d="M18.2741 2.05354C17.7756 2.7827 17.1729 3.40398 16.4661 3.91738C16.4735 4.02154 16.4772 4.17779 16.4772 4.38613C16.4772 5.35339 16.3359 6.31879 16.0531 7.28233C15.7704 8.24587 15.3407 9.17035 14.7641 10.0558C14.1874 10.9412 13.501 11.7243 12.7049 12.4051C11.9088 13.0859 10.949 13.6291 9.82544 14.0346C8.70193 14.4401 7.50029 14.6428 6.22053 14.6428C4.20416 14.6428 2.35892 14.1034 0.684814 13.0245C0.945231 13.0543 1.23541 13.0692 1.55535 13.0692C3.22946 13.0692 4.72127 12.5558 6.0308 11.529C5.24955 11.5141 4.55014 11.2741 3.93258 10.8091C3.31502 10.3441 2.89092 9.75071 2.66026 9.02898C2.9058 9.06618 3.13273 9.08479 3.34106 9.08479C3.66101 9.08479 3.97723 9.04386 4.28973 8.96202C3.45639 8.79089 2.76629 8.37608 2.21941 7.7176C1.67254 7.05912 1.3991 6.29461 1.3991 5.42407V5.37943C1.90505 5.66217 2.44821 5.8147 3.02856 5.83702C2.53749 5.50964 2.14687 5.08181 1.85669 4.55354C1.56651 4.02526 1.42142 3.45235 1.42142 2.83479C1.42142 2.18002 1.58511 1.57363 1.91249 1.01559C2.81279 2.12422 3.9084 3.0115 5.19932 3.67742C6.49025 4.34334 7.87231 4.71351 9.34553 4.78791C9.28601 4.50517 9.25624 4.22988 9.25624 3.96202C9.25624 2.96499 9.60781 2.11492 10.3109 1.4118C11.0141 0.708671 11.8641 0.357107 12.8612 0.357107C13.9028 0.357107 14.7808 0.736572 15.4951 1.4955C16.3061 1.33925 17.0687 1.04907 17.783 0.624965C17.5077 1.48062 16.9795 2.14282 16.1982 2.61157C16.8902 2.53717 17.5821 2.35116 18.2741 2.05354Z" fill="#FFFDFF"/>
</svg>
