<svg width="20" height="20" viewBox="0 0 20 20" fill="none" xmlns="http://www.w3.org/2000/svg">
<path d="M16.4852 2.96094C18.2898 4.76562 19.407 7.12891 19.407 9.70703C19.407 14.9492 15.0242 19.2461 9.73906 19.2461C8.14922 19.2461 6.60234 18.8164 5.18438 18.0859L0.157032 19.375L1.48906 14.4336C0.672657 13.0156 0.200001 11.3828 0.200001 9.66406C0.200001 4.42188 4.49688 0.125 9.73906 0.125C12.3172 0.125 14.7234 1.15625 16.4852 2.96094ZM9.73906 17.6133C14.1219 17.6133 17.7742 14.0469 17.7742 9.70703C17.7742 7.55859 16.8719 5.58203 15.368 4.07812C13.8641 2.57422 11.8875 1.75781 9.78203 1.75781C5.39922 1.75781 1.83281 5.32422 1.83281 9.66406C1.83281 11.168 2.2625 12.6289 3.03594 13.918L3.25078 14.2188L2.43438 17.1406L5.44219 16.3242L5.7 16.4961C6.94609 17.2266 8.32109 17.6133 9.73906 17.6133ZM14.1219 11.6836C14.3367 11.8125 14.5086 11.8555 14.5516 11.9844C14.6375 12.0703 14.6375 12.543 14.4227 13.1016C14.2078 13.6602 13.2625 14.1758 12.8328 14.2188C12.0594 14.3477 11.4578 14.3047 9.95391 13.6172C7.54766 12.5859 6.00078 10.1797 5.87188 10.0508C5.74297 9.87891 4.92656 8.76172 4.92656 7.55859C4.92656 6.39844 5.52813 5.83984 5.74297 5.58203C5.95781 5.32422 6.21563 5.28125 6.3875 5.28125C6.51641 5.28125 6.68828 5.28125 6.81719 5.28125C6.98906 5.28125 7.16094 5.23828 7.37578 5.71094C7.54766 6.18359 8.06328 7.34375 8.10625 7.47266C8.14922 7.60156 8.19219 7.73047 8.10625 7.90234C7.67656 8.80469 7.16094 8.76172 7.41875 9.19141C8.36406 10.7812 9.26641 11.3398 10.6844 12.0273C10.8992 12.1562 11.0281 12.1133 11.2 11.9844C11.3289 11.8125 11.8016 11.2539 11.9305 11.0391C12.1023 10.7812 12.2742 10.8242 12.4891 10.9102C12.7039 10.9961 13.8641 11.5547 14.1219 11.6836Z" fill="#FEF2FE"/>
</svg>
