<svg width="56" height="31" viewBox="0 0 56 31" fill="none" xmlns="http://www.w3.org/2000/svg">
<path d="M34.365 10.7109C36.1697 12.5156 37.2869 14.8789 37.2869 17.457C37.2869 22.6992 32.9041 26.9961 27.6189 26.9961C26.0291 26.9961 24.4822 26.5664 23.0643 25.8359L18.0369 27.125L19.3689 22.1836C18.5525 20.7656 18.0799 19.1328 18.0799 17.4141C18.0799 12.1719 22.3768 7.875 27.6189 7.875C30.1971 7.875 32.6033 8.90625 34.365 10.7109ZM27.6189 25.3633C32.0018 25.3633 35.6541 21.7969 35.6541 17.457C35.6541 15.3086 34.7518 13.332 33.2479 11.8281C31.7439 10.3242 29.7674 9.50781 27.6619 9.50781C23.2791 9.50781 19.7127 13.0742 19.7127 17.4141C19.7127 18.918 20.1424 20.3789 20.9158 21.668L21.1307 21.9688L20.3143 24.8906L23.3221 24.0742L23.5799 24.2461C24.826 24.9766 26.201 25.3633 27.6189 25.3633ZM32.0018 19.4336C32.2166 19.5625 32.3885 19.6055 32.4314 19.7344C32.5174 19.8203 32.5174 20.293 32.3025 20.8516C32.0877 21.4102 31.1424 21.9258 30.7127 21.9688C29.9393 22.0977 29.3377 22.0547 27.8338 21.3672C25.4275 20.3359 23.8807 17.9297 23.7518 17.8008C23.6229 17.6289 22.8064 16.5117 22.8064 15.3086C22.8064 14.1484 23.408 13.5898 23.6229 13.332C23.8377 13.0742 24.0955 13.0312 24.2674 13.0312C24.3963 13.0312 24.5682 13.0312 24.6971 13.0312C24.8689 13.0312 25.0408 12.9883 25.2557 13.4609C25.4275 13.9336 25.9432 15.0938 25.9861 15.2227C26.0291 15.3516 26.0721 15.4805 25.9861 15.6523C25.5564 16.5547 25.0408 16.5117 25.2986 16.9414C26.2439 18.5312 27.1463 19.0898 28.5643 19.7773C28.7791 19.9062 28.908 19.8633 29.0799 19.7344C29.2088 19.5625 29.6814 19.0039 29.8104 18.7891C29.9822 18.5312 30.1541 18.5742 30.3689 18.6602C30.5838 18.7461 31.7439 19.3047 32.0018 19.4336Z" fill="#2B282B"/>
</svg>
