<svg width="20" height="21" viewBox="0 0 20 21" fill="none" xmlns="http://www.w3.org/2000/svg">
<path d="M16.365 3.71094C18.1697 5.51562 19.2869 7.87891 19.2869 10.457C19.2869 15.6992 14.9041 19.9961 9.61895 19.9961C8.0291 19.9961 6.48223 19.5664 5.06426 18.8359L0.0369148 20.125L1.36895 15.1836C0.55254 13.7656 0.0798836 12.1328 0.0798836 10.4141C0.0798836 5.17188 4.37676 0.875 9.61895 0.875C12.1971 0.875 14.6033 1.90625 16.365 3.71094ZM9.61895 18.3633C14.0018 18.3633 17.6541 14.7969 17.6541 10.457C17.6541 8.30859 16.7518 6.33203 15.2479 4.82812C13.7439 3.32422 11.7674 2.50781 9.66191 2.50781C5.2791 2.50781 1.7127 6.07422 1.7127 10.4141C1.7127 11.918 2.14238 13.3789 2.91582 14.668L3.13066 14.9688L2.31426 17.8906L5.32207 17.0742L5.57988 17.2461C6.82598 17.9766 8.20098 18.3633 9.61895 18.3633ZM14.0018 12.4336C14.2166 12.5625 14.3885 12.6055 14.4314 12.7344C14.5174 12.8203 14.5174 13.293 14.3025 13.8516C14.0877 14.4102 13.1424 14.9258 12.7127 14.9688C11.9393 15.0977 11.3377 15.0547 9.83379 14.3672C7.42754 13.3359 5.88066 10.9297 5.75176 10.8008C5.62285 10.6289 4.80645 9.51172 4.80645 8.30859C4.80645 7.14844 5.40801 6.58984 5.62285 6.33203C5.8377 6.07422 6.09551 6.03125 6.26738 6.03125C6.39629 6.03125 6.56816 6.03125 6.69707 6.03125C6.86895 6.03125 7.04082 5.98828 7.25566 6.46094C7.42754 6.93359 7.94316 8.09375 7.98613 8.22266C8.0291 8.35156 8.07207 8.48047 7.98613 8.65234C7.55645 9.55469 7.04082 9.51172 7.29863 9.94141C8.24395 11.5312 9.14629 12.0898 10.5643 12.7773C10.7791 12.9062 10.908 12.8633 11.0799 12.7344C11.2088 12.5625 11.6814 12.0039 11.8104 11.7891C11.9822 11.5312 12.1541 11.5742 12.3689 11.6602C12.5838 11.7461 13.7439 12.3047 14.0018 12.4336Z" fill="#2B282B"/>
</svg>
