<svg width="35" height="35" viewBox="0 0 35 35" fill="none" xmlns="http://www.w3.org/2000/svg">
<path fill-rule="evenodd" clip-rule="evenodd" d="M22.621 26.7735L24.6831 28.8355C24.8198 28.9722 25.0053 29.049 25.1986 29.049C25.392 29.049 25.5774 28.9722 25.7141 28.8355L29.8383 24.7114C29.9711 24.5739 30.0446 24.3897 30.043 24.1985C30.0413 24.0073 29.9646 23.8244 29.8294 23.6892C29.6942 23.554 29.5114 23.4773 29.3202 23.4757C29.129 23.474 28.9448 23.5475 28.8073 23.6803L25.1986 27.289L23.6521 25.7424C23.5145 25.6096 23.3304 25.5361 23.1392 25.5378C22.948 25.5394 22.7651 25.6161 22.6299 25.7513C22.4947 25.8865 22.418 26.0694 22.4164 26.2606C22.4147 26.4517 22.4882 26.6359 22.621 26.7735ZM9.47925 13.9999C9.47925 13.5748 9.31008 13.1665 9.00967 12.8653C8.70849 12.5649 8.30051 12.396 7.87508 12.3958H6.70841C6.28331 12.3958 5.87498 12.5649 5.57383 12.8653C5.27336 13.1665 5.10451 13.5745 5.10425 13.9999V15.1666C5.10425 15.5917 5.27341 16 5.57383 16.3012C5.87498 16.6016 6.28331 16.7708 6.70841 16.7708H7.87508C8.30019 16.7708 8.70852 16.6016 9.00967 16.3012C9.31008 16 9.47925 15.5917 9.47925 15.1666V13.9999ZM8.02092 13.9999V15.1666C8.02096 15.1857 8.01717 15.2047 8.00978 15.2223C8.00239 15.24 7.99155 15.256 7.97789 15.2694C7.96449 15.2831 7.94849 15.2939 7.93083 15.3013C7.91317 15.3087 7.89422 15.3125 7.87508 15.3124H6.70841C6.68928 15.3125 6.67032 15.3087 6.65267 15.3013C6.63501 15.2939 6.61901 15.2831 6.6056 15.2694C6.59194 15.256 6.5811 15.24 6.57371 15.2223C6.56633 15.2047 6.56254 15.1857 6.56258 15.1666V13.9999C6.56258 13.9613 6.57789 13.9241 6.6056 13.8971C6.61901 13.8834 6.63501 13.8726 6.65267 13.8652C6.67032 13.8578 6.68928 13.854 6.70841 13.8541H7.87508C7.91373 13.8541 7.95092 13.8694 7.97789 13.8971C7.99155 13.9105 8.00239 13.9265 8.00978 13.9442C8.01717 13.9618 8.02096 13.9808 8.02092 13.9999ZM9.47925 19.8333C9.47925 19.4081 9.31008 18.9998 9.00967 18.6987C8.70849 18.3982 8.30051 18.2293 7.87508 18.2291H6.70841C6.28331 18.2291 5.87498 18.3983 5.57383 18.6987C5.27336 18.9998 5.10451 19.4078 5.10425 19.8333V20.9999C5.10425 21.425 5.27341 21.8334 5.57383 22.1345C5.87498 22.4349 6.28331 22.6041 6.70841 22.6041H7.87508C8.30019 22.6041 8.70852 22.4349 9.00967 22.1345C9.31008 21.8334 9.47925 21.425 9.47925 20.9999V19.8333ZM8.02092 19.8333V20.9999C8.02096 21.0191 8.01717 21.038 8.00978 21.0557C8.00239 21.0733 7.99155 21.0893 7.97789 21.1027C7.96449 21.1164 7.94849 21.1272 7.93083 21.1346C7.91317 21.142 7.89422 21.1458 7.87508 21.1458H6.70841C6.68928 21.1458 6.67032 21.142 6.65267 21.1346C6.63501 21.1272 6.61901 21.1164 6.6056 21.1027C6.59194 21.0893 6.5811 21.0733 6.57371 21.0557C6.56633 21.038 6.56254 21.0191 6.56258 20.9999V19.8333C6.56258 19.7946 6.57789 19.7574 6.6056 19.7304C6.61901 19.7168 6.63501 19.7059 6.65267 19.6986C6.67032 19.6912 6.68928 19.6874 6.70841 19.6874H7.87508C7.91373 19.6874 7.95092 19.7027 7.97789 19.7304C7.99155 19.7438 8.00239 19.7598 8.00978 19.7775C8.01717 19.7952 8.02096 19.8141 8.02092 19.8333ZM9.47925 25.6666C9.47925 25.2415 9.31008 24.8331 9.00967 24.532C8.70849 24.2315 8.30051 24.0627 7.87508 24.0624H6.70841C6.28331 24.0624 5.87498 24.2316 5.57383 24.532C5.27336 24.8332 5.10451 25.2412 5.10425 25.6666V26.8333C5.10425 27.2584 5.27341 27.6667 5.57383 27.9678C5.87498 28.2683 6.28331 28.4374 6.70841 28.4374H7.87508C8.30019 28.4374 8.70852 28.2683 9.00967 27.9678C9.31008 27.6667 9.47925 27.2584 9.47925 26.8333V25.6666ZM8.02092 25.6666V26.8333C8.02096 26.8524 8.01717 26.8713 8.00978 26.889C8.00239 26.9067 7.99155 26.9227 7.97789 26.9361C7.96449 26.9497 7.94849 26.9606 7.93083 26.968C7.91317 26.9753 7.89422 26.9791 7.87508 26.9791H6.70841C6.68928 26.9791 6.67032 26.9753 6.65267 26.968C6.63501 26.9606 6.61901 26.9497 6.6056 26.9361C6.59194 26.9227 6.5811 26.9067 6.57371 26.889C6.56633 26.8713 6.56254 26.8524 6.56258 26.8333V25.6666C6.56258 25.6279 6.57789 25.5908 6.6056 25.5638C6.61901 25.5501 6.63501 25.5393 6.65267 25.5319C6.67032 25.5245 6.68928 25.5207 6.70841 25.5208H7.87508C7.91373 25.5208 7.95092 25.5361 7.97789 25.5638C7.99155 25.5772 8.00239 25.5932 8.00978 25.6108C8.01717 25.6285 8.02096 25.6474 8.02092 25.6666ZM15.3126 13.9999C15.3126 13.5748 15.1434 13.1665 14.843 12.8653C14.5418 12.5649 14.1338 12.396 13.7084 12.3958H12.5417C12.1166 12.3958 11.7083 12.5649 11.4072 12.8653C11.1067 13.1665 10.9378 13.5745 10.9376 13.9999V15.1666C10.9376 15.5917 11.1067 16 11.4072 16.3012C11.7083 16.6016 12.1166 16.7708 12.5417 16.7708H13.7084C14.1335 16.7708 14.5419 16.6016 14.843 16.3012C15.1434 16 15.3126 15.5917 15.3126 15.1666V13.9999ZM13.8542 13.9999V15.1666C13.8543 15.1857 13.8505 15.2047 13.8431 15.2223C13.8357 15.24 13.8249 15.256 13.8112 15.2694C13.7978 15.2831 13.7818 15.2939 13.7642 15.3013C13.7465 15.3087 13.7276 15.3125 13.7084 15.3124H12.5417C12.5226 15.3125 12.5037 15.3087 12.486 15.3013C12.4683 15.2939 12.4523 15.2831 12.4389 15.2694C12.4253 15.256 12.4144 15.24 12.407 15.2223C12.3997 15.2047 12.3959 15.1857 12.3959 15.1666V13.9999C12.3959 13.9613 12.4112 13.9241 12.4389 13.8971C12.4523 13.8834 12.4683 13.8726 12.486 13.8652C12.5037 13.8578 12.5226 13.854 12.5417 13.8541H13.7084C13.7471 13.8541 13.7842 13.8694 13.8112 13.8971C13.8249 13.9105 13.8357 13.9265 13.8431 13.9442C13.8505 13.9618 13.8543 13.9808 13.8542 13.9999ZM15.3126 19.8333C15.3126 19.4081 15.1434 18.9998 14.843 18.6987C14.5418 18.3982 14.1338 18.2293 13.7084 18.2291H12.5417C12.1166 18.2291 11.7083 18.3983 11.4072 18.6987C11.1067 18.9998 10.9378 19.4078 10.9376 19.8333V20.9999C10.9376 21.425 11.1067 21.8334 11.4072 22.1345C11.7083 22.4349 12.1166 22.6041 12.5417 22.6041H13.7084C14.1335 22.6041 14.5419 22.4349 14.843 22.1345C15.1434 21.8334 15.3126 21.425 15.3126 20.9999V19.8333ZM13.8542 19.8333V20.9999C13.8543 21.0191 13.8505 21.038 13.8431 21.0557C13.8357 21.0733 13.8249 21.0893 13.8112 21.1027C13.7978 21.1164 13.7818 21.1272 13.7642 21.1346C13.7465 21.142 13.7276 21.1458 13.7084 21.1458H12.5417C12.5226 21.1458 12.5037 21.142 12.486 21.1346C12.4683 21.1272 12.4523 21.1164 12.4389 21.1027C12.4253 21.0893 12.4144 21.0733 12.407 21.0557C12.3997 21.038 12.3959 21.0191 12.3959 20.9999V19.8333C12.3959 19.7946 12.4112 19.7574 12.4389 19.7304C12.4523 19.7168 12.4683 19.7059 12.486 19.6986C12.5037 19.6912 12.5226 19.6874 12.5417 19.6874H13.7084C13.7471 19.6874 13.7842 19.7027 13.8112 19.7304C13.8249 19.7438 13.8357 19.7598 13.8431 19.7775C13.8505 19.7952 13.8543 19.8141 13.8542 19.8333ZM15.3126 25.6666C15.3126 25.2415 15.1434 24.8331 14.843 24.532C14.5418 24.2315 14.1338 24.0627 13.7084 24.0624H12.5417C12.1166 24.0624 11.7083 24.2316 11.4072 24.532C11.1067 24.8332 10.9378 25.2412 10.9376 25.6666V26.8333C10.9376 27.2584 11.1067 27.6667 11.4072 27.9678C11.7083 28.2683 12.1166 28.4374 12.5417 28.4374H13.7084C14.1335 28.4374 14.5419 28.2683 14.843 27.9678C15.1434 27.6667 15.3126 27.2584 15.3126 26.8333V25.6666ZM13.8542 25.6666V26.8333C13.8543 26.8524 13.8505 26.8713 13.8431 26.889C13.8357 26.9067 13.8249 26.9227 13.8112 26.9361C13.7978 26.9497 13.7818 26.9606 13.7642 26.968C13.7465 26.9753 13.7276 26.9791 13.7084 26.9791H12.5417C12.5226 26.9791 12.5037 26.9753 12.486 26.968C12.4683 26.9606 12.4523 26.9497 12.4389 26.9361C12.4253 26.9227 12.4144 26.9067 12.407 26.889C12.3997 26.8713 12.3959 26.8524 12.3959 26.8333V25.6666C12.3959 25.6279 12.4112 25.5908 12.4389 25.5638C12.4523 25.5501 12.4683 25.5393 12.486 25.5319C12.5037 25.5245 12.5226 25.5207 12.5417 25.5208H13.7084C13.7471 25.5208 13.7842 25.5361 13.8112 25.5638C13.8249 25.5772 13.8357 25.5932 13.8431 25.6108C13.8505 25.6285 13.8543 25.6474 13.8542 25.6666ZM21.1459 13.9999C21.1459 13.5748 20.9768 13.1665 20.6763 12.8653C20.3752 12.5649 19.9672 12.396 19.5417 12.3958H18.3751C17.95 12.3958 17.5416 12.5649 17.2405 12.8653C16.94 13.1665 16.7712 13.5745 16.7709 13.9999V15.1666C16.7709 15.5917 16.9401 16 17.2405 16.3012C17.5416 16.6016 17.95 16.7708 18.3751 16.7708H19.5417C19.9669 16.7708 20.3752 16.6016 20.6763 16.3012C20.9768 16 21.1459 15.5917 21.1459 15.1666V13.9999ZM19.6876 13.9999V15.1666C19.6876 15.1857 19.6838 15.2047 19.6764 15.2223C19.6691 15.24 19.6582 15.256 19.6446 15.2694C19.6312 15.2831 19.6152 15.2939 19.5975 15.3013C19.5798 15.3087 19.5609 15.3125 19.5417 15.3124H18.3751C18.3559 15.3125 18.337 15.3087 18.3193 15.3013C18.3017 15.2939 18.2857 15.2831 18.2723 15.2694C18.2586 15.256 18.2478 15.24 18.2404 15.2223C18.233 15.2047 18.2292 15.1857 18.2292 15.1666V13.9999C18.2292 13.9613 18.2446 13.9241 18.2723 13.8971C18.2857 13.8834 18.3017 13.8726 18.3193 13.8652C18.337 13.8578 18.3559 13.854 18.3751 13.8541H19.5417C19.5804 13.8541 19.6176 13.8694 19.6446 13.8971C19.6582 13.9105 19.6691 13.9265 19.6764 13.9442C19.6838 13.9618 19.6876 13.9808 19.6876 13.9999ZM26.9792 13.9999C26.9792 13.5748 26.8101 13.1665 26.5097 12.8653C26.2085 12.5649 25.8005 12.396 25.3751 12.3958H24.2084C23.7833 12.3958 23.375 12.5649 23.0738 12.8653C22.7734 13.1665 22.6045 13.5745 22.6042 13.9999V15.1666C22.6042 15.5917 22.7734 16 23.0738 16.3012C23.375 16.6016 23.7833 16.7708 24.2084 16.7708H25.3751C25.8002 16.7708 26.2085 16.6016 26.5097 16.3012C26.8101 16 26.9792 15.5917 26.9792 15.1666V13.9999ZM25.5209 13.9999V15.1666C25.521 15.1857 25.5172 15.2047 25.5098 15.2223C25.5024 15.24 25.4916 15.256 25.4779 15.2694C25.4645 15.2831 25.4485 15.2939 25.4308 15.3013C25.4132 15.3087 25.3942 15.3125 25.3751 15.3124H24.2084C24.1893 15.3125 24.1703 15.3087 24.1527 15.3013C24.135 15.2939 24.119 15.2831 24.1056 15.2694C24.0919 15.256 24.0811 15.24 24.0737 15.2223C24.0663 15.2047 24.0625 15.1857 24.0626 15.1666V13.9999C24.0626 13.9613 24.0779 13.9241 24.1056 13.8971C24.119 13.8834 24.135 13.8726 24.1527 13.8652C24.1703 13.8578 24.1893 13.854 24.2084 13.8541H25.3751C25.4137 13.8541 25.4509 13.8694 25.4779 13.8971C25.4916 13.9105 25.5024 13.9265 25.5098 13.9442C25.5172 13.9618 25.521 13.9808 25.5209 13.9999Z" fill="#fdf9f2"/>
<path fill-rule="evenodd" clip-rule="evenodd" d="M20.0646 31.3541H4.37508C3.40814 31.354 2.48079 30.97 1.79675 30.2866C1.11333 29.6026 0.729388 28.6752 0.729248 27.7083V7.29163C0.729248 6.32469 1.11336 5.39736 1.79709 4.71363C2.48081 4.02991 3.40815 3.64579 4.37508 3.64579H6.56258V2.91663C6.56258 2.33647 6.79305 1.78007 7.20329 1.36983C7.61352 0.959594 8.16992 0.729126 8.75008 0.729126C9.33024 0.729126 9.88664 0.959594 10.2969 1.36983C10.7071 1.78007 10.9376 2.33647 10.9376 2.91663V3.64579H21.1459V2.91663C21.1459 2.33647 21.3764 1.78007 21.7866 1.36983C22.1969 0.959594 22.7533 0.729126 23.3334 0.729126C23.9136 0.729126 24.47 0.959594 24.8802 1.36983C25.2904 1.78007 25.5209 2.33647 25.5209 2.91663V3.64579H27.7084C28.6754 3.64579 29.6027 4.02991 30.2864 4.71363C30.9701 5.39736 31.3542 6.32469 31.3542 7.29163V20.0644C33.1356 21.5366 34.2709 23.7613 34.2709 26.25C34.2709 30.6767 30.6769 34.2708 26.2501 34.2708C25.0676 34.2716 23.8997 34.0105 22.8302 33.5062C21.7607 33.0019 20.8162 32.2669 20.0646 31.3541ZM26.2501 19.6875C29.8719 19.6875 32.8126 22.6282 32.8126 26.25C32.8126 29.8717 29.8719 32.8125 26.2501 32.8125C22.6283 32.8125 19.6876 29.8717 19.6876 26.25C19.6876 22.6282 22.6283 19.6875 26.2501 19.6875ZM29.8959 19.1049V10.9375H2.18758V27.7083C2.18758 28.2887 2.418 28.8451 2.82852 29.2549C3.0315 29.4581 3.27259 29.6194 3.53797 29.7294C3.80335 29.8393 4.08781 29.8959 4.37508 29.8958H19.105C18.545 28.802 18.2292 27.5625 18.2292 26.25C18.2292 21.8232 21.8233 18.2291 26.2501 18.2291C27.5626 18.2291 28.8022 18.5449 29.8959 19.1049ZM25.5209 5.10413V5.83329C25.5209 6.41345 25.2904 6.96985 24.8802 7.38009C24.47 7.79033 23.9136 8.02079 23.3334 8.02079C22.7533 8.02079 22.1969 7.79033 21.7866 7.38009C21.3764 6.96985 21.1459 6.41345 21.1459 5.83329V5.10413H10.9376V5.83329C10.9376 6.41345 10.7071 6.96985 10.2969 7.38009C9.88664 7.79033 9.33024 8.02079 8.75008 8.02079C8.16992 8.02079 7.61352 7.79033 7.20329 7.38009C6.79305 6.96985 6.56258 6.41345 6.56258 5.83329V5.10413H4.37508C3.79492 5.10413 3.23852 5.33459 2.82829 5.74483C2.41805 6.15507 2.18758 6.71147 2.18758 7.29163V9.47913H29.8959V7.29163C29.8959 6.71147 29.6654 6.15507 29.2552 5.74483C28.845 5.33459 28.2886 5.10413 27.7084 5.10413H25.5209ZM24.0626 2.91663V5.83329C24.0626 6.02668 23.9858 6.21215 23.849 6.34889C23.7123 6.48564 23.5268 6.56246 23.3334 6.56246C23.14 6.56246 22.9546 6.48564 22.8178 6.34889C22.6811 6.21215 22.6042 6.02668 22.6042 5.83329V2.91663C22.6042 2.72324 22.6811 2.53777 22.8178 2.40103C22.9546 2.26428 23.14 2.18746 23.3334 2.18746C23.5268 2.18746 23.7123 2.26428 23.849 2.40103C23.9858 2.53777 24.0626 2.72324 24.0626 2.91663ZM9.47925 2.91663V5.83329C9.47925 6.02668 9.40243 6.21215 9.26568 6.34889C9.12893 6.48564 8.94347 6.56246 8.75008 6.56246C8.55669 6.56246 8.37123 6.48564 8.23448 6.34889C8.09774 6.21215 8.02092 6.02668 8.02092 5.83329V2.91663C8.02092 2.72324 8.09774 2.53777 8.23448 2.40103C8.37123 2.26428 8.55669 2.18746 8.75008 2.18746C8.94347 2.18746 9.12893 2.26428 9.26568 2.40103C9.40243 2.53777 9.47925 2.72324 9.47925 2.91663Z" fill="#fdf9f2"/>
</svg>
