<svg width="35" height="35" viewBox="0 0 35 35" fill="none" xmlns="http://www.w3.org/2000/svg">
<mask id="mask0_136_685" style="mask-type:luminance" maskUnits="userSpaceOnUse" x="0" y="0" width="35" height="35">
<path d="M34.5 34.5V0.5H0.5V34.5H34.5Z" fill="white" stroke="white"/>
</mask>
<g mask="url(#mask0_136_685)">
<path d="M4.89651 24.6238H33.4312C34.0145 24.6238 34.4873 24.1509 34.4873 23.5677V11.4325C34.4873 10.8492 34.0145 10.3764 33.4312 10.3764H1.56878C0.985537 10.3764 0.512695 10.8492 0.512695 11.4325V23.5677C0.512695 24.1509 0.985537 24.6238 1.56878 24.6238H2.70464" stroke="#FDF9F2" stroke-miterlimit="10" stroke-linecap="round" stroke-linejoin="round"/>
<path d="M25.1718 15.8561V16.4041" stroke="#FDF9F2" stroke-miterlimit="10" stroke-linecap="round" stroke-linejoin="round"/>
<path d="M25.1718 18.596V19.1439" stroke="#FDF9F2" stroke-miterlimit="10" stroke-linecap="round" stroke-linejoin="round"/>
<path d="M25.1718 21.3358V21.8838" stroke="#FDF9F2" stroke-miterlimit="10" stroke-linecap="round" stroke-linejoin="round"/>
<path d="M25.1718 13.1161V13.6641" stroke="#FDF9F2" stroke-miterlimit="10" stroke-linecap="round" stroke-linejoin="round"/>
<path d="M25.1718 10.3762V10.9242" stroke="#FDF9F2" stroke-miterlimit="10" stroke-linecap="round" stroke-linejoin="round"/>
<path d="M25.1718 24.0759V24.6239" stroke="#FDF9F2" stroke-miterlimit="10" stroke-linecap="round" stroke-linejoin="round"/>
<path d="M27.9116 17.5H31.7475" stroke="#FDF9F2" stroke-miterlimit="10" stroke-linecap="round" stroke-linejoin="round"/>
<path d="M27.9116 15.3081H31.7475" stroke="#FDF9F2" stroke-miterlimit="10" stroke-linecap="round" stroke-linejoin="round"/>
<path d="M27.9116 19.6919H31.7475" stroke="#FDF9F2" stroke-miterlimit="10" stroke-linecap="round" stroke-linejoin="round"/>
<path d="M3.25256 17.5H4.3485" stroke="#FDF9F2" stroke-miterlimit="10" stroke-linecap="round" stroke-linejoin="round"/>
<path d="M3.25256 15.3081H4.3485" stroke="#FDF9F2" stroke-miterlimit="10" stroke-linecap="round" stroke-linejoin="round"/>
<path d="M3.25256 19.6919H4.3485" stroke="#FDF9F2" stroke-miterlimit="10" stroke-linecap="round" stroke-linejoin="round"/>
<path d="M7.63647 16.4041H16.4041C17.0094 16.4041 17.5001 16.8948 17.5001 17.5C17.5001 18.1053 17.0094 18.5959 16.4041 18.5959H7.63647" stroke="#FDF9F2" stroke-miterlimit="10" stroke-linecap="round" stroke-linejoin="round"/>
<path d="M7.08838 19.6919L7.93932 17.9901C8.01538 17.8379 8.05498 17.6701 8.05498 17.5C8.05498 17.3299 8.01538 17.1621 7.93932 17.0099L7.08838 15.3081" stroke="#FDF9F2" stroke-miterlimit="10" stroke-linecap="round" stroke-linejoin="round"/>
<path d="M9.28027 12.5682H11.4562C11.6306 12.5682 11.8025 12.6098 11.9577 12.6897C12.1128 12.7695 12.2466 12.8852 12.348 13.0272L14.76 16.4041" stroke="#FDF9F2" stroke-miterlimit="10" stroke-linecap="round" stroke-linejoin="round"/>
<path d="M11.4723 16.4041L9.82837 12.5682" stroke="#FDF9F2" stroke-miterlimit="10" stroke-linecap="round" stroke-linejoin="round"/>
<path d="M9.28027 22.4318H11.4562C11.6306 22.4318 11.8025 22.3901 11.9577 22.3103C12.1128 22.2305 12.2466 22.1148 12.348 21.9728L14.76 18.5959" stroke="#FDF9F2" stroke-miterlimit="10" stroke-linecap="round" stroke-linejoin="round"/>
<path d="M11.4723 18.5959L9.82837 22.4318" stroke="#FDF9F2" stroke-miterlimit="10" stroke-linecap="round" stroke-linejoin="round"/>
<path d="M22.4317 17.5C22.4317 18.1053 21.9411 18.5959 21.3358 18.5959C20.7305 18.5959 20.2399 18.1053 20.2399 17.5C20.2399 16.8948 20.7305 16.4041 21.3358 16.4041C21.9411 16.4041 22.4317 16.8948 22.4317 17.5Z" stroke="#FDF9F2" stroke-miterlimit="10" stroke-linecap="round" stroke-linejoin="round"/>
<path d="M22.4317 13.6642C22.4317 14.2694 21.9411 14.7601 21.3358 14.7601C20.7305 14.7601 20.2399 14.2694 20.2399 13.6642C20.2399 13.0589 20.7305 12.5683 21.3358 12.5683C21.9411 12.5683 22.4317 13.0589 22.4317 13.6642Z" stroke="#FDF9F2" stroke-miterlimit="10" stroke-linecap="round" stroke-linejoin="round"/>
<path d="M22.4317 21.3358C22.4317 21.9411 21.9411 22.4318 21.3358 22.4318C20.7305 22.4318 20.2399 21.9411 20.2399 21.3358C20.2399 20.7306 20.7305 20.2399 21.3358 20.2399C21.9411 20.2399 22.4317 20.7306 22.4317 21.3358Z" stroke="#FDF9F2" stroke-miterlimit="10" stroke-linecap="round" stroke-linejoin="round"/>
</g>
</svg>
