<svg width="35" height="35" viewBox="0 0 35 35" fill="none" xmlns="http://www.w3.org/2000/svg">
<g clip-path="url(#clip0_31_163)">
<path d="M19.765 21.517H17.7107L16.2958 20.1171V19.3985C18.0357 18.4076 19.2937 16.6646 19.6247 14.6152H20.3313C21.2385 14.6152 21.9764 13.8772 21.9764 12.97V10.1387C21.9764 9.23152 21.2384 8.49358 20.3313 8.49358H19.7114V5.04267C19.7114 3.51107 18.4654 2.26502 16.9338 2.26502H13.8694C13.4194 0.949102 12.1715 0 10.7051 0C9.05707 0 7.68462 1.19875 7.41152 2.76992C6.67693 3.28686 6.22877 4.13622 6.22877 5.0426V8.49352H5.60902C4.70183 8.49352 3.96389 9.23152 3.96389 10.1387V12.97C3.96389 13.8771 4.70189 14.6151 5.60902 14.6151H6.31552C6.64658 16.6646 7.90467 18.4075 9.64455 19.3985V20.1171L8.22965 21.5169H6.17524C2.77026 21.5169 0 24.2871 0 27.6922V34.4873C0 34.6233 0.054016 34.7537 0.150165 34.8498C0.246314 34.946 0.37672 35 0.512695 35H4.61651C4.89966 35 5.12921 34.7705 5.12921 34.4873C5.12921 34.2041 4.89966 33.9746 4.61651 33.9746H1.02539V27.6922C1.02539 24.8526 3.3356 22.5424 6.17524 22.5424H7.68298L5.69919 27.502C5.65549 27.6112 5.65068 27.7321 5.68557 27.8445C5.72046 27.9568 5.79292 28.0537 5.8908 28.1189L12.4574 32.4968V33.9746H6.66729C6.38415 33.9746 6.1546 34.2041 6.1546 34.4873C6.1546 34.7705 6.38415 35 6.66729 35H25.4274C25.5634 35 25.6938 34.946 25.79 34.8498C25.8861 34.7537 25.9401 34.6233 25.9401 34.4873V27.6922C25.9402 24.2872 23.17 21.517 19.765 21.517ZM19.7114 13.5363V9.51884H20.3313V9.51891C20.673 9.51891 20.9511 9.79692 20.9511 10.1387V12.97C20.9511 13.3117 20.673 13.5897 20.3313 13.5897H19.7107C19.7109 13.5719 19.7114 13.5542 19.7114 13.5363ZM5.60896 13.5898C5.26723 13.5898 4.98921 13.3118 4.98921 12.97V10.1387C4.98921 9.79699 5.26723 9.51897 5.60896 9.51897H6.2287V13.5365C6.2287 13.5543 6.22925 13.5721 6.22938 13.5898H5.60896ZM19.1334 27.4968L14.5914 30.5168L16.8072 26.8236C16.8084 26.8216 16.8094 26.8194 16.8105 26.8173C16.8144 26.8106 16.8178 26.8037 16.8215 26.7969C16.8277 26.7851 16.8334 26.773 16.8387 26.7608C16.8415 26.7542 16.8443 26.7477 16.8468 26.741C16.8531 26.7243 16.8586 26.7075 16.8631 26.6905C16.8636 26.6884 16.8646 26.6864 16.8651 26.6842L17.6078 23.7133L19.1334 27.4968ZM12.9701 23.8874L14.5101 25.4274L13.3239 26.6134H12.6161L11.4301 25.4274L12.0235 24.834L12.9701 23.8874ZM12.3002 21.7608L10.6698 20.1198V19.8734C11.3879 20.1348 12.1626 20.2777 12.97 20.2777C13.7775 20.2777 14.5521 20.1348 15.2703 19.8734V20.1198L12.97 22.4349L12.3002 21.7608ZM15.2352 26.1525L15.722 26.6392L14.4424 28.7721L14.0998 27.2877L15.2352 26.1525ZM16.9317 22.1888L16.0898 25.557L15.5983 25.0655L15.5977 25.0648L13.694 23.1611L15.7862 21.0555L16.9317 22.1888ZM10.7051 1.02539C11.9836 1.02539 13.0237 2.06548 13.0237 3.34387C13.0237 3.47984 13.0777 3.61025 13.1739 3.7064C13.27 3.80255 13.4004 3.85656 13.5364 3.85656C13.6724 3.85656 13.8028 3.80255 13.8989 3.7064C13.9951 3.61025 14.0491 3.47984 14.0491 3.34387C14.0491 3.32589 14.048 3.30825 14.0477 3.29034H16.9338C17.9 3.29034 18.6861 4.07641 18.6861 5.0426V8.43568C17.8188 8.23901 17.1348 7.55515 16.9382 6.6878H17.5001C17.7833 6.6878 18.0128 6.45832 18.0128 6.17511C18.0128 5.89189 17.7833 5.66241 17.5001 5.66241H16.3702L16.3676 5.66228L16.3649 5.66241H10.7051C9.42669 5.66241 8.3866 4.62232 8.3866 3.34387C8.3866 2.06548 9.42662 1.02539 10.7051 1.02539ZM7.25409 5.0426C7.25409 4.74318 7.33223 4.45389 7.47243 4.19897C7.70478 5.07657 8.28598 5.81328 9.05796 6.25222C9.02275 7.32013 8.26226 8.20709 7.25409 8.43568V5.0426ZM7.25409 13.5364V9.4796C8.69107 9.2575 9.82885 8.11733 10.0473 6.67926C10.0771 6.68466 10.1075 6.68787 10.1389 6.68787H15.8942C16.1159 8.12198 17.2519 9.25805 18.686 9.47967V13.5365C18.686 16.6882 16.1219 19.2524 12.9701 19.2524C9.81825 19.2523 7.25409 16.6882 7.25409 13.5364ZM10.154 21.0554L11.2582 22.1669L12.2461 23.1612L10.3424 25.0649L10.3417 25.0655L9.85024 25.557L9.00833 22.1888L10.154 21.0554ZM6.80565 27.4965L8.32727 23.6925L9.07375 26.6789L9.07491 26.6836L9.07505 26.6842L9.07539 26.6851C9.08039 26.7046 9.08657 26.7238 9.09392 26.7425C9.09597 26.7479 9.09829 26.7533 9.10048 26.7586C9.10629 26.7724 9.11285 26.786 9.11996 26.7995C9.1229 26.805 9.12564 26.8106 9.12878 26.816C9.13021 26.8185 9.13131 26.8211 9.13281 26.8236L11.2716 30.3883L11.272 30.389L11.3573 30.5311L6.80565 27.4965ZM11.4977 28.7721L10.2181 26.6393L10.7049 26.1524L11.8403 27.2876L11.4977 28.7721ZM12.2578 30.0388L12.8116 27.6387H13.1284L13.6822 30.0388L12.97 31.2258L12.2578 30.0388ZM24.9148 33.9746H13.4828V32.485L20.0488 28.1192C20.1471 28.0539 20.2198 27.9567 20.2547 27.844C20.2896 27.7313 20.2846 27.61 20.2405 27.5006L18.2412 22.5423H19.7649C22.6045 22.5423 24.9147 24.8525 24.9147 27.6922L24.9148 33.9746Z" fill="#800080"/>
<path d="M18.6326 30.294C18.4966 30.294 18.3662 30.348 18.27 30.4442C18.1739 30.5403 18.1199 30.6707 18.1199 30.8067V32.5054C18.1199 32.6414 18.1739 32.7718 18.27 32.868C18.3662 32.9641 18.4966 33.0181 18.6326 33.0181H23.1625C23.2985 33.0181 23.4289 32.9641 23.5251 32.868C23.6212 32.7718 23.6752 32.6414 23.6752 32.5054V30.8067C23.6752 30.6707 23.6212 30.5403 23.5251 30.4442C23.4289 30.348 23.2985 30.294 23.1625 30.294H18.6326ZM22.6498 31.9927H19.1453V31.3194H22.6498V31.9927ZM32.2224 3.39734H25.4274C23.8958 3.39734 22.6498 4.64333 22.6498 6.17492V12.9699C22.6498 14.5015 23.8958 15.7476 25.4274 15.7476H25.4809V17.4999C25.4809 17.6076 25.5148 17.7124 25.5777 17.7997C25.6406 17.887 25.7294 17.9523 25.8315 17.9863C25.9336 18.0204 26.0438 18.0214 26.1465 17.9893C26.2492 17.9572 26.3392 17.8936 26.4038 17.8076L27.9487 15.7476H32.2225C33.7541 15.7476 35.0001 14.5015 35.0001 12.9699V6.17492C35 4.64339 33.754 3.39734 32.2224 3.39734ZM32.2224 14.7222H27.6923C27.6127 14.7222 27.5342 14.7407 27.463 14.7763C27.3918 14.8119 27.3299 14.8636 27.2821 14.9272L26.5063 15.9618V15.2349C26.5063 15.0989 26.4523 14.9685 26.3561 14.8723C26.26 14.7762 26.1295 14.7222 25.9936 14.7222H25.4273C24.4612 14.7222 23.6751 13.9361 23.6751 12.9699V6.17492C23.6751 5.20873 24.4612 4.42273 25.4273 4.42273H32.2223C33.1885 4.42273 33.9745 5.20873 33.9745 6.17492V12.9699H33.9746C33.9746 13.9361 33.1886 14.7222 32.2224 14.7222Z" fill="#800080"/>
<path d="M33.2989 6.12651C33.2982 6.12022 33.2971 6.114 33.2963 6.10771C33.2949 6.09746 33.2937 6.08721 33.2917 6.07702C33.2905 6.07107 33.2889 6.0652 33.2874 6.05925C33.285 6.04886 33.2827 6.03853 33.2796 6.02828C33.2781 6.02309 33.2762 6.0181 33.2745 6.01297C33.271 6.00215 33.2672 5.99146 33.263 5.98091C33.2612 5.9766 33.2591 5.97243 33.2572 5.96812C33.2524 5.95703 33.2472 5.94611 33.2417 5.93538C33.2397 5.93148 33.2373 5.92779 33.2351 5.92403C33.2292 5.91325 33.2229 5.90269 33.2162 5.89238C33.2135 5.88821 33.2103 5.88432 33.2075 5.88021C33.2008 5.87071 33.1941 5.86121 33.1866 5.85205C33.1825 5.84699 33.178 5.84228 33.1737 5.83735C33.1669 5.82963 33.1603 5.8219 33.153 5.81452L33.1511 5.8124C33.1455 5.80687 33.1396 5.80201 33.1338 5.79682C33.1283 5.79176 33.1231 5.78636 33.1173 5.7815C33.1166 5.78089 33.1159 5.78048 33.1151 5.77986C33.1081 5.77412 33.1008 5.76899 33.0936 5.76366C33.0869 5.75874 33.0804 5.75348 33.0736 5.7489C33.0696 5.74623 33.0653 5.74397 33.0612 5.74145C32.9943 5.69898 32.9183 5.67276 32.8393 5.66488L32.8345 5.66461C32.8196 5.66323 32.8047 5.6625 32.7898 5.66242L32.7884 5.66235L31.656 5.66249C31.5886 5.6625 31.522 5.67577 31.4598 5.70154C31.3976 5.72732 31.3411 5.76509 31.2935 5.8127C31.2459 5.86032 31.2081 5.91684 31.1823 5.97905C31.1566 6.04126 31.1433 6.10793 31.1433 6.17525C31.1434 6.24258 31.1566 6.30925 31.1824 6.37145C31.2082 6.43365 31.2459 6.49016 31.2936 6.53776C31.3412 6.58537 31.3977 6.62312 31.4599 6.64888C31.5221 6.67464 31.5888 6.68789 31.6561 6.68788H31.692L29.3678 9.46963L28.0653 8.08822C28.0129 8.03292 27.949 7.98992 27.878 7.96232C27.807 7.93472 27.7308 7.9232 27.6549 7.9286C27.5789 7.93415 27.5052 7.95655 27.439 7.99418C27.3727 8.0318 27.3157 8.08371 27.2721 8.14612L24.4996 12.1099C24.4458 12.1867 24.4142 12.2768 24.4081 12.3703C24.402 12.4638 24.4216 12.5573 24.4649 12.6404C24.5081 12.7236 24.5734 12.7933 24.6535 12.8419C24.7336 12.8906 24.8256 12.9164 24.9193 12.9164C25.0018 12.9166 25.0832 12.8967 25.1564 12.8586C25.2297 12.8205 25.2926 12.7652 25.3398 12.6976L27.7513 9.24992L29.0178 10.5932C29.1184 10.6998 29.2598 10.7568 29.4063 10.754C29.4787 10.7518 29.5498 10.7343 29.615 10.7026C29.6802 10.6709 29.7379 10.6258 29.7843 10.5701L32.326 7.52795C32.3676 7.61537 32.4331 7.68923 32.5149 7.74095C32.5967 7.79267 32.6915 7.82014 32.7883 7.82019C32.9243 7.82019 33.0547 7.76617 33.1509 7.67002C33.247 7.57387 33.301 7.44347 33.301 7.30749V6.17888C33.3013 6.17854 33.3013 6.17819 33.3013 6.17785V6.17505C33.3013 6.17013 33.3007 6.16527 33.3006 6.16035C33.3002 6.14907 33.2999 6.13779 33.2989 6.12651Z" fill="#800080"/>
</g>
<defs>
<clipPath id="clip0_31_163">
<rect width="35" height="35" fill="white"/>
</clipPath>
</defs>
</svg>
