<svg width="35" height="35" viewBox="0 0 35 35" fill="none" xmlns="http://www.w3.org/2000/svg">
<mask id="mask0_136_666" style="mask-type:luminance" maskUnits="userSpaceOnUse" x="0" y="0" width="35" height="35">
<path d="M34.5 34.5V0.5H0.5V34.5H34.5Z" fill="white" stroke="white"/>
</mask>
<g mask="url(#mask0_136_666)">
<path d="M20.2852 15.4515C20.2852 15.4515 19.4209 14.6415 18.0757 15.0349C16.8404 15.3961 16.5208 17.0798 17.3529 17.7433C17.8307 18.1244 18.5517 18.4403 19.524 18.7928C21.7 19.5818 20.8685 22.653 18.6486 22.6499C17.7822 22.6487 17.3776 22.5904 16.6206 22.0865" stroke="#800080" stroke-miterlimit="10" stroke-linecap="round" stroke-linejoin="round"/>
<path d="M22.159 28.9622H12.4072" stroke="#800080" stroke-miterlimit="10" stroke-linecap="round" stroke-linejoin="round"/>
<path d="M4.95483 31.3554L10.9678 33.5934C11.6185 33.8357 12.3072 33.9597 13.0016 33.9597H20.8973C22.0023 33.9597 23.0845 33.6457 24.0178 33.0542L33.9041 27.4617C34.5563 26.8825 34.6773 25.9092 34.1865 25.1881C33.6496 24.399 32.7614 24.2618 31.7842 24.724L22.1589 28.9621L22.1703 27.4005C22.0428 26.1187 21.0559 25.09 19.7805 24.9096L13.9189 24.2346C12.5669 24.0433 11.8912 23.5902 10.7125 22.9007C9.10314 21.9593 7.27229 21.4631 5.40785 21.4631H4.95483" stroke="#800080" stroke-miterlimit="10" stroke-linecap="round" stroke-linejoin="round"/>
<path d="M4.95489 32.2678C4.95489 32.8237 4.50427 33.2743 3.94837 33.2743H1.51915C0.963252 33.2743 0.512695 32.8237 0.512695 32.2678V20.6152C0.512695 20.0593 0.963252 19.6087 1.51915 19.6087H3.94837C4.50427 19.6087 4.95489 20.0593 4.95489 20.6152V32.2678Z" stroke="#800080" stroke-miterlimit="10" stroke-linecap="round" stroke-linejoin="round"/>
<path d="M26.5152 22.0115C26.9081 21.0505 27.1285 20.0001 27.1374 18.8985C27.17 14.8368 24.3179 11.4247 20.4954 10.6073" stroke="#800080" stroke-miterlimit="10" stroke-linecap="round" stroke-linejoin="round"/>
<path d="M21.9658 26.5939C23.278 26.0459 24.4226 25.1747 25.2991 24.0791" stroke="#800080" stroke-miterlimit="10" stroke-linecap="round" stroke-linejoin="round"/>
<path d="M11.0321 15.4357C10.5823 16.4539 10.3285 17.5789 10.3189 18.7629C10.3048 20.5094 10.8243 22.1356 11.7248 23.4873" stroke="#800080" stroke-miterlimit="10" stroke-linecap="round" stroke-linejoin="round"/>
<path d="M16.9625 10.6073C15.1035 11.0046 13.4703 12.0168 12.2883 13.4224" stroke="#800080" stroke-miterlimit="10" stroke-linecap="round" stroke-linejoin="round"/>
<path d="M11.8502 10.4281C9.44304 12.4007 7.89675 15.3879 7.86968 18.7432C7.86045 19.8013 8.00593 20.8551 8.3015 21.8711" stroke="#800080" stroke-miterlimit="10" stroke-linecap="round" stroke-linejoin="round"/>
<path d="M24.9415 27.7369C27.7253 25.7914 29.5569 22.5729 29.5863 18.9182C29.614 15.5007 28.0592 12.4399 25.6073 10.4296" stroke="#800080" stroke-miterlimit="10" stroke-linecap="round" stroke-linejoin="round"/>
<path d="M25.4187 10.6073H12.0391C11.9887 10.6073 11.9404 10.5873 11.9048 10.5517C11.8691 10.516 11.8491 10.4677 11.8491 10.4173V7.50016C11.8491 7.25388 11.9253 7.01363 12.0672 6.81234C12.2092 6.61106 12.4098 6.4586 12.6418 6.37585L13.6813 6.00514C15.2973 5.42874 16.9983 5.11271 18.714 5.11114C18.8132 5.11107 18.9123 5.11189 19.0114 5.11367C20.6334 5.14279 22.2378 5.45697 23.7659 6.00166L24.8157 6.37592C25.0477 6.45863 25.2485 6.61109 25.3904 6.81239C25.5324 7.0137 25.6086 7.25398 25.6086 7.5003V10.4173C25.6086 10.4677 25.5886 10.516 25.5529 10.5516C25.5173 10.5873 25.469 10.6073 25.4187 10.6073Z" stroke="#800080" stroke-miterlimit="10" stroke-linecap="round" stroke-linejoin="round"/>
<path d="M25.607 7.45996L29.3489 5.98052C29.6989 5.84209 29.6989 5.34663 29.3489 5.20827L18.8807 1.06938C18.7826 1.03055 18.6735 1.03055 18.5754 1.06938L8.10716 5.20827C7.75709 5.34663 7.75709 5.84209 8.10716 5.98052L11.8507 7.46057" stroke="#800080" stroke-miterlimit="10" stroke-linecap="round" stroke-linejoin="round"/>
<path d="M30.2962 10.4753H28.9268C28.6504 10.4753 28.4423 10.2238 28.4942 9.95226L28.8038 8.32975C28.823 8.22906 28.8767 8.13823 28.9557 8.0729C29.0347 8.00756 29.134 7.97182 29.2365 7.97182H29.9866C30.0891 7.97183 30.1884 8.00758 30.2674 8.07291C30.3464 8.13825 30.4001 8.22907 30.4193 8.32975L30.729 9.95226C30.7808 10.2238 30.5726 10.4753 30.2962 10.4753Z" stroke="#800080" stroke-miterlimit="10" stroke-linecap="round" stroke-linejoin="round"/>
</g>
</svg>
